{"title":"Lock.Stock.and.Two.Smoking.Barrels.1998.720p.BRRip.XviD.AC3-CODY","uid":6268964,"size":2135736845,"categoryP":"video","categoryS":"hd___movies","magnet":"?xt=urn:btih:d5477dee4ac8a5f2d1db45e13ff40e2acb9b42f6&amp;dn=Lock.Stock.and.Two.Smoking.Barrels.1998.720p.BRRip.XviD.AC3-CODY&amp;tr=udp%3A%2F%2Ftracker.openbittorrent.com%3A80&amp;tr=udp%3A%2F%2Fopen.demonii.com%3A1337&amp;tr=udp%3A%2F%2Ftracker.coppersurfer.tk%3A6969&amp;tr=udp%3A%2F%2Fexodus.desync.com%3A6969","seeders":2,"leechers":0,"uploader":"CODYBOSS1969","files":6,"time":1301001110,"description":"General\nComplete name                    : Lock.Stock.and.Two.Smoking.Barrels.1998.720p.BRRip.XviD.AC3 - CODY.avi\nFormat                           : AVI\nFormat/Info                      : Audio Video Interleave\nFormat profile                   : OpenDML\nFormat settings                  : rec\nFile size                        : 1.99 GiB\nDuration                         : 1h 47mn\nOverall bit rate                 : 2 651 Kbps\nWriting application              : VirtualDubMod 1.5.10.2 (build 2540/release)\nWriting library                  : VirtualDubMod build 2540/release\n\n\nVideo\nID                               : 0\nFormat                           : MPEG-4 Visual\nFormat profile                   : Advanced Simple@L5\nFormat settings, BVOP            : Yes\nFormat settings, QPel            : No\nFormat settings, GMC             : No warppoints\nFormat settings, Matrix          : Default (H.263)\nMuxing mode                      : Packed bitstream\nCodec ID                         : XVID\nCodec ID/Hint                    : XviD\nDuration                         : 1h 47mn\nBit rate                         : 2 200 Kbps\nWidth                            : 1 280 pixels\nHeight                           : 688 pixels\nDisplay aspect ratio             : 1.860\nFrame rate                       : 23.976 fps\nColor space                      : YUV\nChroma subsampling               : 4:2:0\nBit depth                        : 8 bits\nScan type                        : Progressive\nCompression mode                 : Lossy\nBits/(Pixel*Frame)               : 0.104\nStream size                      : 1.65 GiB (83%)\nWriting library                  : XviD 1.2.0.dev47 (UTC 2006-11-01)\n\n\nAudio\nID                               : 1\nFormat                           : AC-3\nFormat/Info                      : Audio Coding 3\nMode extension                   : CM (complete main)\nCodec ID                         : 2000\nDuration                         : 1h 47mn\nBit rate mode                    : Constant\nBit rate                         : 448 Kbps\nChannel(s)                       : 6 channels\nChannel positions                : Front: L C R, Side: L R, LFE\nSampling rate                    : 48.0 KHz\nBit depth                        : 16 bits\nCompression mode                 : Lossy\nStream size                      : 344 MiB (17%)\nAlignment                        : Aligned on interleaves\nInterleave, duration             : 64 ms (1.53 video frames)\nInterleave, preload duration     : 192 ms\nLanguage                         : English\n\n\n\nIMDB link                         &lt;a href=&quot; http://www.imdb.com/title/tt0120735/&quot; rel=&quot;nofollow&quot; target=&quot;_NEW&quot;&gt; http://www.imdb.com/title/tt0120735/&lt;/a&gt;\n\n\nSubtitles included               : Romanian, English\n\n\n\nPlease seed at least 1,5:1. This way this torrent has a chance to survive !\n\n\nThanks. ENJOY !!!            \n\n","torrent":{"xt":"urn:btih:d5477dee4ac8a5f2d1db45e13ff40e2acb9b42f6","amp;dn":"Lock.Stock.and.Two.Smoking.Barrels.1998.720p.BRRip.XviD.AC3-CODY","amp;tr":["udp%3A%2F%2Ftracker.openbittorrent.com%3A80","udp%3A%2F%2Fopen.demonii.com%3A1337","udp%3A%2F%2Ftracker.coppersurfer.tk%3A6969","udp%3A%2F%2Fexodus.desync.com%3A6969"],"infoHash":"d5477dee4ac8a5f2d1db45e13ff40e2acb9b42f6","infoHashBuffer":{"type":"Buffer","data":[213,71,125,238,74,200,165,242,209,219,69,225,63,244,14,42,203,155,66,246]},"announce":[],"urlList":[]}}